<?xml version="1.0" encoding="iso-8859-1"?>
<!-- Generator: Adobe Illustrator 16.0.0, SVG Export Plug-In . SVG Version: 6.00 Build 0)  -->
<!DOCTYPE svg PUBLIC "-//W3C//DTD SVG 1.1//EN" "http://www.w3.org/Graphics/SVG/1.1/DTD/svg11.dtd">
<svg xmlns="http://www.w3.org/2000/svg" xmlns:xlink="http://www.w3.org/1999/xlink" version="1.1" id="Capa_1" x="0px" y="0px" width="512px" height="512px" viewBox="0 0 482.028 482.027" style="enable-background:new 0 0 482.028 482.027;" xml:space="preserve">
<g>
	<path d="M404.303,183.6h-30.601v-80.325C373.703,46.206,327.497,0,270.428,0h-59.67c-57.069,0-103.275,46.206-103.275,103.275   V183.6H77.648c-15.147,0-27.54,12.393-27.54,27.54v243.346c0,15.146,12.393,27.541,27.54,27.541h326.731   c15.146,0,27.54-12.395,27.54-27.541V211.14C431.843,195.993,419.45,183.6,404.303,183.6z M258.723,364.141v30.6   c0,10.098-8.262,18.359-18.36,18.359c-10.098,0-18.36-8.262-18.36-18.359v-30.6c-22.644-7.65-39.015-29.07-39.015-54.316   c0-31.67,25.704-57.375,57.375-57.375c31.671,0,57.375,25.705,57.375,57.375C297.739,335.07,281.52,356.49,258.723,364.141z    M313.803,183.6h-146.88v-66.555c0-30.447,24.633-55.08,55.08-55.08h36.72c30.447,0,55.08,24.633,55.08,55.08V183.6z" fill="#FFFFFF"/>
</g>
<g>
</g>
<g>
</g>
<g>
</g>
<g>
</g>
<g>
</g>
<g>
</g>
<g>
</g>
<g>
</g>
<g>
</g>
<g>
</g>
<g>
</g>
<g>
</g>
<g>
</g>
<g>
</g>
<g>
</g>
</svg>
